<svg xmlns="http://www.w3.org/2000/svg" version="1.1" xmlns:xlink="http://www.w3.org/1999/xlink" xmlns:svgjs="http://svgjs.dev/svgjs" width="1500" height="1500" viewBox="0 0 1500 1500"><rect width="1500" height="1500" fill="#000000"></rect><g transform="matrix(0.6666666666666666,0,0,0.6666666666666666,250.00000000000017,187.66666666666674)"><svg viewBox="0 0 320 360" data-background-color="#ff0022" preserveAspectRatio="xMidYMid meet" height="1687" width="1500" xmlns="http://www.w3.org/2000/svg" xmlns:xlink="http://www.w3.org/1999/xlink"><g id="tight-bounds" transform="matrix(1,0,0,1,0,0)"><svg viewBox="0 0 320 360" height="360" width="320"><g><svg></svg></g><g><svg viewBox="0 0 320 360" height="360" width="320"><g><path d="M20.961 227.22l3.726 4.658-1.863-6.056c-0.466-2.795-3.726 0.466-1.863 1.398M25.153 224.425c1.397 2.329 2.795 4.658 2.795 6.987 0 3.261 2.795 4.658 5.123 5.589-3.261-3.726-5.124-13.974-7.918-12.576M204.017 26.929c7.918 0 15.371-0.932 23.756 0.931 20.495 5.124 37.729 15.371 49.374 29.811l32.606 52.169c1.397 13.042 4.192 27.482 3.726 43.319 3.261 0 2.795-4.658 6.521-5.59-3.726 9.316-5.59 20.961-6.521 34.469-2.329-7.453 0-18.632 0.466-24.687-3.261 5.124-5.124 1.397-5.124-0.932 0.466-3.726-1.397-3.261-2.795-4.658-5.124-4.658-8.384-9.782-12.11-17.7 2.329-6.055 2.795-14.905-4.658-19.563-2.329-1.397-5.124-3.726-6.521-7.453-1.863-5.124-5.124-11.179-4.193-19.097 0.466-2.329-6.987 5.124-11.179 1.863-18.166-12.576-36.332-27.016-58.224-39.127-11.645 0-20.029-4.192-24.221-9.316-3.726-4.658-0.932-10.713 4.658-11.179 3.261 0 6.987-0.932 9.782 0.932 0.466-1.863 2.329-4.192 4.657-4.192M157.904 16.215l0.932 0.466c4.658 0.932 6.987 7.453 12.11 5.124 0 3.261 0.466 6.521-0.466 8.85-1.397 3.726-5.59 3.726-8.85 3.726-31.208-1.863-49.374 11.179-68.471 22.358-5.124 3.261-10.713 5.59-14.906 9.782-20.029 18.632-41.921 35.866-47.045 70.335l-4.192 38.195c-0.466 4.192-5.124 8.384-4.192 13.508l3.26 22.824c-3.261-3.261-5.124 0.932-4.192 2.795 0.466 1.397 2.329 6.055 5.124 1.863 3.726 6.987 7.453 20.495 12.576 26.55 15.837 18.632 36.332 35.4 53.101 52.169 4.192-0.932 7.453-0.932 8.384-3.727 1.397 2.795-1.397 5.59-3.726 6.056 7.453 4.658 15.837 8.85 27.016 9.781 14.44 0.932 27.948 3.261 40.524 6.522 6.521-1.863 13.042-2.795 20.029-3.261 2.329 0 3.726-3.726 6.521-4.658l0.466-4.658c2.795 4.192 2.329-1.397 0.466-4.192 3.261 2.795 4.192 5.124 5.589 6.987 0-1.397 3.726-6.521 3.727-0.466l0.931-6.055c1.397-0.932 1.863 5.124 3.261 0.931 1.397-4.192 4.192-0.932 6.987-2.329-0.932 1.863-0.466 5.59 2.794 3.261l3.727-3.261c2.329 5.59 6.055 3.261 7.918 2.329 20.495-13.042 40.99-28.413 60.553-43.784l-0.466 6.055 2.329-7.453c2.329 2.329 4.192 0.466 5.124-0.931 2.795-4.658 6.521-9.316 12.577-13.508-7.453 20.029-16.303 35.866-27.482 48.908l-4.658 5.59c0 3.261-0.932 7.453-4.658 7.918-1.863 0.466-5.59-0.932-8.384 1.863-1.397 1.863 3.261 5.59-0.466 2.795-3.261-2.329-6.521 0-10.248 0.932-2.795 0.932 1.863 3.726 2.795 5.589 0.932 1.863 1.863 3.726 1.398 6.056l-5.124-5.59c-6.055 3.261-9.782 9.316-14.906 13.974-2.329 1.863-1.397 5.124-1.397 7.918-3.261 0-6.987-0.932-8.85 0.932-1.397 1.863-0.932 4.658-0.932 7.453-4.658-0.466-5.124-7.453-9.315-6.056-4.192 0.932-8.85 1.397-12.577 3.727 2.795 5.59-4.658 2.329-3.726 3.26-6.987-4.192-13.042-7.453-20.495-4.658-15.837-5.124-35.4-2.795-49.84-0.931 0-2.329 0.466-4.658-0.466-5.124-0.932 2.329-3.726 1.397-3.26 1.397-8.85-6.055-17.7-9.782-27.016-14.905-8.384 0.932-16.303-3.261-18.632-5.59-6.521-6.055-13.974-2.795-20.029-4.192-13.042-3.261-17.7-16.769-19.098-26.084-0.932-4.658-4.658-6.521-6.055-6.056-6.055-19.563-15.371-37.263-22.824-55.429-1.863-4.658-1.397-9.316-1.397-14.44 2.329 0.932 4.658 0.466 4.192-2.794-2.329-15.371-7.918-27.016-13.974-38.195 3.261-15.837 3.726-34.469 11.179-48.443 6.521-12.576 18.632-19.098 27.016-29.811 2.795-3.726 2.795-8.85 5.59-12.11 9.316-9.316 18.632-19.098 28.879-27.482 4.658-3.726 10.247 0 17.234-1.397 2.329-8.384 11.645-15.837 20.495-13.508 3.726 0.932 11.179-8.85 13.508-9.782 3.726-1.397 1.863 3.726 1.863 6.987 8.85-6.987 20.961-10.713 32.14-14.906" fill="#ffffff" fill-rule="nonzero" stroke="none" stroke-width="1" stroke-linecap="butt" stroke-linejoin="miter" stroke-miterlimit="10" stroke-dasharray="" stroke-dashoffset="0" font-family="none" font-weight="none" font-size="none" text-anchor="none" style="mix-blend-mode: normal" data-fill-palette-color="tertiary"></path></g><g transform="matrix(1,0,0,1,83.26446280991736,90)"><svg viewBox="0 0 153.47107438016528 180" height="180" width="153.47107438016528"><g><svg viewBox="0 0 153.47107438016528 180" height="180" width="153.47107438016528"><g><svg viewBox="0 0 153.47107438016528 180" height="180" width="153.47107438016528"><g><svg viewBox="0 0 153.47107438016528 180" height="180" width="153.47107438016528"><g id="textblocktransform"><svg viewBox="0 0 153.47107438016528 180" height="180" width="153.47107438016528" id="textblock"><g><svg viewBox="0 0 153.47107438016528 180" height="180" width="153.47107438016528"><g transform="matrix(1,0,0,1,0,0)"><svg width="153.47107438016528" viewBox="1 -36.1 30.95 36.300000000000004" height="180" data-palette-color="#ffffff"><path d="M5.85 0.2L5.85 0.2Q4.05 0.2 2.65-1.38 1.25-2.95 1.25-6.3L1.25-6.3Q1.25-8.65 1.88-11 2.5-13.35 3.15-15.3L3.15-15.3Q4.15-18.5 4.9-21.2 5.65-23.9 5.65-26.35L5.65-26.35Q5.65-28.05 5.28-28.7 4.9-29.35 4.3-29.35L4.3-29.35Q3.65-29.35 2.88-28.65 2.1-27.95 1.35-26.5L1.35-26.5 1-26.6Q1.1-29.5 2.25-31.6 3.4-33.7 5.15-34.85 6.9-36 8.75-36L8.75-36Q10.85-36 12.35-34.33 13.85-32.65 13.85-28.55L13.85-28.55Q13.85-26.4 13.43-24.05 13-21.7 12.45-19.35L12.45-19.35Q14.15-20.05 16.05-20.35 17.95-20.65 20.1-20.65L20.1-20.65 21.4-20.65Q22.05-23.15 22.53-25.58 23-28 23-30.1L23-30.1Q23-30.85 22.93-31.5 22.85-32.15 22.75-32.75L22.75-32.75 22.75-33.15Q23.5-34.5 24.93-35.3 26.35-36.1 27.8-36.1L27.8-36.1Q29.45-36.1 30.7-35.02 31.95-33.95 31.95-31.6L31.95-31.6Q31.95-29.85 31.28-27.1 30.6-24.35 29.75-21.45L29.75-21.45Q28.75-17.9 27.93-14.58 27.1-11.25 27.1-8.95L27.1-8.95Q27.1-7.4 27.6-6.5 28.1-5.6 29.2-5.6L29.2-5.6Q30.7-5.6 31.45-7.05L31.45-7.05 31.75-6.9Q31.7-4.8 30.6-3.2 29.5-1.6 27.88-0.7 26.25 0.2 24.55 0.2L24.55 0.2Q23.05 0.2 21.73-0.58 20.4-1.35 19.58-3 18.75-4.65 18.75-7.3L18.75-7.3Q18.75-9.05 19.13-11.13 19.5-13.2 20-15.35L20-15.35Q17.7-15.5 15.5-15.5L15.5-15.5Q14.4-15.5 13.4-15.45 12.4-15.4 11.5-15.3L11.5-15.3Q11.05-13.3 10.73-11.38 10.4-9.45 10.4-7.65L10.4-7.65Q10.4-6.65 10.53-5.68 10.65-4.7 10.95-3.8L10.95-3.8Q10.15-1.85 8.72-0.83 7.3 0.2 5.85 0.2Z" opacity="1" transform="matrix(1,0,0,1,0,0)" fill="#ffffff" class="wordmark-text-0" data-fill-palette-color="primary" id="text-0"></path></svg></g></svg></g></svg></g></svg></g></svg></g></svg></g></svg></g></svg></g><defs></defs></svg><rect width="320" height="360" fill="none" stroke="none" visibility="hidden"></rect></g></svg></g></svg>